<mxfile host="app.diagrams.net" agent="Mozilla/5.0 (Macintosh; Intel Mac OS X 10_15_7) AppleWebKit/537.36 (KHTML, like Gecko) Chrome/136.0.0.0 Safari/537.36" version="27.1.0">
  <diagram name="Page-1" id="bd83a815-5ea8-2e97-e5ec-87c9f400f2fa">
    <mxGraphModel dx="1619" dy="1027" grid="1" gridSize="10" guides="1" tooltips="1" connect="1" arrows="1" fold="1" page="1" pageScale="1.5" pageWidth="1169" pageHeight="826" background="none" math="0" shadow="0">
      <root>
        <mxCell id="0" style=";html=1;" />
        <mxCell id="1" style=";html=1;" parent="0" />
        <mxCell id="1516e18e63f93b96-1" value="&lt;table style=&quot;width: 100% ; height: 100% ; border-collapse: collapse&quot; cellpadding=&quot;4&quot; width=&quot;100%&quot; border=&quot;1&quot;&gt;&lt;tbody&gt;&lt;tr style=&quot;border: 1px solid rgb(152, 191, 33);&quot;&gt;&lt;th&gt;&lt;br&gt;&lt;/th&gt;&lt;th&gt;&lt;font face=&quot;YS Text, sans-serif&quot;&gt;&lt;span style=&quot;font-weight: 400; white-space: pre-line;&quot;&gt;Продажи в отделении&lt;/span&gt;&lt;/font&gt;&lt;/th&gt;&lt;th&gt;&lt;font face=&quot;YS Text, sans-serif&quot;&gt;&lt;span style=&quot;font-weight: 400; white-space: pre-line;&quot;&gt;Продажи через колл-ценрт&lt;/span&gt;&lt;/font&gt;&lt;/th&gt;&lt;th&gt;Маркетинговая часть сайта&lt;/th&gt;&lt;td&gt;&lt;span style=&quot;font-family: &amp;quot;YS Text&amp;quot;, sans-serif; white-space: pre-wrap;&quot;&gt; проведение платежей и открытие текущих счетов через &lt;/span&gt;&lt;span style=&quot;font-family: &amp;quot;YS Text&amp;quot;, sans-serif; white-space: pre-wrap;&quot;&gt;интернет-банка&lt;/span&gt;&lt;/td&gt;&lt;td&gt;Коммуникация с клиентом&lt;/td&gt;&lt;/tr&gt;&lt;tr style=&quot;border: 1px solid rgb(152, 191, 33);&quot;&gt;&lt;td style=&quot;border: 1px solid rgb(152, 191, 33);&quot;&gt;&lt;strong style=&quot;box-sizing: inherit; font-family: &amp;quot;YS Text&amp;quot;, sans-serif; white-space: pre-line;&quot;&gt;Управление обслуживанием в сети отделений&lt;/strong&gt;&lt;/td&gt;&lt;td&gt;&lt;/td&gt;&lt;td&gt;&lt;br&gt;&lt;/td&gt;&lt;td&gt;&lt;br&gt;&lt;/td&gt;&lt;td&gt;&lt;br&gt;&lt;/td&gt;&lt;td&gt;&lt;br&gt;&lt;/td&gt;&lt;/tr&gt;&lt;tr style=&quot;border: 1px solid rgb(152, 191, 33);&quot;&gt;&lt;td style=&quot;border: 1px solid rgb(152, 191, 33);&quot;&gt;&lt;strong style=&quot;box-sizing: inherit; font-family: &amp;quot;YS Text&amp;quot;, sans-serif; white-space: pre-line;&quot;&gt;&lt;br&gt;Управление IT&lt;br&gt;&lt;br&gt;&lt;/strong&gt;&lt;/td&gt;&lt;td&gt;&lt;/td&gt;&lt;td&gt;&lt;br&gt;&lt;/td&gt;&lt;td&gt;&lt;br&gt;&lt;/td&gt;&lt;td&gt;&lt;br&gt;&lt;/td&gt;&lt;td&gt;&lt;br&gt;&lt;/td&gt;&lt;/tr&gt;&lt;tr style=&quot;border: 1px solid rgb(152, 191, 33);&quot;&gt;&lt;td style=&quot;border: 1px solid rgb(152, 191, 33);&quot;&gt;&lt;strong style=&quot;box-sizing: inherit; font-family: &amp;quot;YS Text&amp;quot;, sans-serif; white-space: pre-line;&quot;&gt;Управление обслуживанием депозитных продуктов&lt;/strong&gt;&lt;/td&gt;&lt;td&gt;&lt;/td&gt;&lt;td&gt;&lt;br&gt;&lt;/td&gt;&lt;td&gt;&lt;br&gt;&lt;/td&gt;&lt;td&gt;&lt;/td&gt;&lt;td&gt;&lt;br&gt;&lt;/td&gt;&lt;/tr&gt;&lt;tr style=&quot;border: 1px solid rgb(152, 191, 33);&quot;&gt;&lt;td style=&quot;border: 1px solid rgb(152, 191, 33);&quot;&gt;&lt;strong style=&quot;box-sizing: inherit; font-family: &amp;quot;YS Text&amp;quot;, sans-serif; white-space: pre-line;&quot;&gt;Управление обслуживанием кредитных продуктов&lt;/strong&gt;&lt;/td&gt;&lt;td&gt;&lt;/td&gt;&lt;td&gt;&lt;br&gt;&lt;/td&gt;&lt;td&gt;&lt;br&gt;&lt;/td&gt;&lt;td&gt;&lt;br&gt;&lt;/td&gt;&lt;td&gt;&lt;br&gt;&lt;/td&gt;&lt;/tr&gt;&lt;tr style=&quot;border: 1px solid rgb(152, 191, 33);&quot;&gt;&lt;td style=&quot;border: 1px solid rgb(152, 191, 33);&quot;&gt;&lt;strong style=&quot;box-sizing: inherit; font-family: &amp;quot;YS Text&amp;quot;, sans-serif; white-space: pre-line;&quot;&gt;Кол-центр банка «Стандарт»&lt;/strong&gt;&lt;/td&gt;&lt;td&gt;&lt;br&gt;&lt;/td&gt;&lt;td&gt;&lt;/td&gt;&lt;td&gt;&lt;br&gt;&lt;/td&gt;&lt;td&gt;&lt;br&gt;&lt;/td&gt;&lt;td&gt;&lt;br&gt;&lt;/td&gt;&lt;/tr&gt;&lt;tr style=&quot;border: 1px solid rgb(152, 191, 33);&quot;&gt;&lt;td style=&quot;border: 1px solid rgb(152, 191, 33);&quot;&gt;&lt;strong style=&quot;box-sizing: inherit; font-family: &amp;quot;YS Text&amp;quot;, sans-serif; white-space: pre-line;&quot;&gt;&lt;br/&gt;Партнёрский кол-центр&lt;br&gt;&lt;br&gt;&lt;/strong&gt;&lt;/td&gt;&lt;td&gt;&lt;br&gt;&lt;/td&gt;&lt;td&gt;&lt;/td&gt;&lt;td&gt;&lt;br&gt;&lt;/td&gt;&lt;td&gt;&lt;br&gt;&lt;/td&gt;&lt;td&gt;&lt;br&gt;&lt;/td&gt;&lt;/tr&gt;&lt;tr style=&quot;border: 1px solid rgb(152, 191, 33);&quot;&gt;&lt;td style=&quot;border: 1px solid rgb(152, 191, 33);&quot;&gt;&lt;strong style=&quot;box-sizing: inherit; font-family: &amp;quot;YS Text&amp;quot;, sans-serif; white-space: pre-line;&quot;&gt;Команда цифровой трансформации розничного бизнеса&lt;/strong&gt;&lt;/td&gt;&lt;td&gt;&lt;br&gt;&lt;/td&gt;&lt;td&gt;&lt;br&gt;&lt;/td&gt;&lt;td&gt;&lt;br&gt;&lt;/td&gt;&lt;td&gt;&lt;br&gt;&lt;/td&gt;&lt;td&gt;&lt;br&gt;&lt;/td&gt;&lt;/tr&gt;&lt;/tbody&gt;&lt;/table&gt;" style="text;html=1;strokeColor=#c0c0c0;fillColor=#ffffff;overflow=fill;rounded=0;shadow=1;fontSize=16;fontColor=light-dark(#000000,#FFFFFF);labelBackgroundColor=none;verticalAlign=middle;" parent="1" vertex="1">
          <mxGeometry x="280" y="160" width="1090" height="660" as="geometry" />
        </mxCell>
        <mxCell id="1516e18e63f93b96-3" value="&lt;span style=&quot;font-family: &amp;quot;YS Text&amp;quot;, Arial, Helvetica, sans-serif; font-weight: 500; text-align: start; text-wrap-mode: wrap;&quot;&gt;Карта IT-ландшафта&lt;/span&gt;" style="text;strokeColor=none;fillColor=none;html=1;fontSize=24;fontStyle=1;verticalAlign=middle;align=center;rounded=0;shadow=1;fontColor=light-dark(#000000,#FFFFFF);labelBackgroundColor=none;" parent="1" vertex="1">
          <mxGeometry x="460" y="70" width="780" height="40" as="geometry" />
        </mxCell>
        <mxCell id="WiY-ZIGsWm6YlvpKkhkH-215" value="&lt;strong style=&quot;box-sizing: inherit; font-family: &amp;quot;YS Text&amp;quot;, sans-serif; text-align: left; white-space-collapse: preserve-breaks;&quot;&gt;АБС&lt;/strong&gt;" style="rounded=0;whiteSpace=wrap;html=1;labelBackgroundColor=none;fillColor=#bac8d3;strokeColor=#23445d;fontSize=14;" parent="1" vertex="1">
          <mxGeometry x="510" y="267.5" width="90" height="312.5" as="geometry" />
        </mxCell>
        <mxCell id="WiY-ZIGsWm6YlvpKkhkH-216" value="&lt;strong style=&quot;box-sizing: inherit; font-family: &amp;quot;YS Text&amp;quot;, sans-serif; text-align: left; white-space-collapse: preserve-breaks;&quot;&gt;Сайт&lt;/strong&gt;" style="rounded=0;whiteSpace=wrap;html=1;labelBackgroundColor=none;fillColor=#bac8d3;strokeColor=#23445d;fontSize=14;" parent="1" vertex="1">
          <mxGeometry x="755" y="340" width="140" height="360" as="geometry" />
        </mxCell>
        <mxCell id="WiY-ZIGsWm6YlvpKkhkH-217" value="&lt;strong style=&quot;box-sizing: inherit; font-family: &amp;quot;YS Text&amp;quot;, sans-serif; text-align: left; white-space-collapse: preserve-breaks;&quot;&gt;Интернет-банк&lt;/strong&gt;" style="rounded=0;whiteSpace=wrap;html=1;labelBackgroundColor=none;fillColor=#bac8d3;strokeColor=#23445d;fontSize=14;" parent="1" vertex="1">
          <mxGeometry x="970" y="350" width="170" height="140" as="geometry" />
        </mxCell>
        <mxCell id="CamIfCUHQsT400I-3B0z-2" value="Система кол-центра" style="rounded=0;whiteSpace=wrap;html=1;labelBackgroundColor=none;fillColor=#bac8d3;strokeColor=#23445d;fontSize=14;" parent="1" vertex="1">
          <mxGeometry x="610" y="600" width="110" height="40" as="geometry" />
        </mxCell>
        <mxCell id="CamIfCUHQsT400I-3B0z-3" value="Система партнёрского кол-центра." style="rounded=0;whiteSpace=wrap;html=1;labelBackgroundColor=none;fillColor=#bac8d3;strokeColor=#23445d;fontSize=14;" parent="1" vertex="1">
          <mxGeometry x="620" y="670" width="90" height="50" as="geometry" />
        </mxCell>
        <mxCell id="CamIfCUHQsT400I-3B0z-4" value="&lt;strong style=&quot;text-align: left; box-sizing: inherit; font-family: &amp;quot;YS Text&amp;quot;, sans-serif; white-space-collapse: preserve-breaks;&quot;&gt;СМС-шлюз телеком-оператора&lt;/strong&gt;" style="rounded=0;whiteSpace=wrap;html=1;labelBackgroundColor=none;fillColor=#bac8d3;strokeColor=#23445d;fontSize=14;" parent="1" vertex="1">
          <mxGeometry x="1170" y="340" width="110" height="70" as="geometry" />
        </mxCell>
        <mxCell id="k36o81wh5r4xoUfFkYuL-1" value="&lt;strong style=&quot;text-align: left; box-sizing: inherit; font-family: &amp;quot;YS Text&amp;quot;, sans-serif; white-space-collapse: preserve-breaks;&quot;&gt;Телеком-оператор&lt;/strong&gt;" style="rounded=0;whiteSpace=wrap;html=1;labelBackgroundColor=none;fillColor=#bac8d3;strokeColor=#23445d;fontSize=14;" parent="1" vertex="1">
          <mxGeometry x="1290" y="340" width="100" height="70" as="geometry" />
        </mxCell>
      </root>
    </mxGraphModel>
  </diagram>
</mxfile>
